<svg xmlns="http://www.w3.org/2000/svg" viewBox="0 0 512 512">
  <defs>
    <linearGradient id="bg" x1="0%" x2="100%" y1="0%" y2="100%">
      <stop offset="0%" stop-color="#0f2743" />
      <stop offset="100%" stop-color="#07131f" />
    </linearGradient>
    <linearGradient id="sea" x1="0%" x2="100%" y1="0%" y2="100%">
      <stop offset="0%" stop-color="#62d3ff" />
      <stop offset="100%" stop-color="#1f88ff" />
    </linearGradient>
  </defs>
  <rect width="512" height="512" rx="108" fill="url(#bg)" />
  <path d="M80 324c39-21 72-21 111 0 39 21 72 21 111 0 39-21 72-21 130 0v58H80z" fill="url(#sea)" opacity="0.95" />
  <path d="M114 258c30-53 78-84 144-95 67-11 122 7 166 49-42-13-79-6-113 21-34 28-75 42-126 39-24 0-47-4-71-14z" fill="#f8b24d" opacity="0.95" />
  <circle cx="359" cy="164" r="43" fill="#dfcca5" opacity="0.92" />
  <path d="M139 372h230" stroke="#f7fafc" stroke-linecap="round" stroke-width="22" opacity="0.9" />
  <path d="M175 319l50 54 109-122" fill="none" stroke="#59d68f" stroke-linecap="round" stroke-linejoin="round" stroke-width="28" />
</svg>
